<svg id="bisturi" xmlns="http://www.w3.org/2000/svg" width="64.743" height="61.247" viewBox="0 0 64.743 61.247">
  <path id="Trazado_180" data-name="Trazado 180" d="M37.965,38.128,62.495,13.6A7.675,7.675,0,1,0,51.64,2.745L27.11,27.274h0L23,31.387a2.693,2.693,0,0,0-.4,3.306l-6.253,6.253a1.264,1.264,0,0,0,1.788,1.788l6.2-6.2,4.651,4.651L13.247,56.922a7.786,7.786,0,0,1-5.39,2.292H7.508a7.775,7.775,0,0,1-4.385-1.47l6.965-6.965A1.264,1.264,0,1,0,8.3,48.991L.37,56.922a1.264,1.264,0,0,0,0,1.788A10.3,10.3,0,0,0,7.7,61.748c.052,0,.1,0,.155,0h24.51a1.265,1.265,0,0,0,0-2.529H14.489c.186-.162.369-.328.546-.5L30.917,42.829a2.7,2.7,0,0,0,2.934-.587l4.113-4.113h0s0,0,0,0Zm15.464-33.6a5.146,5.146,0,1,1,7.277,7.277L37.07,35.446l-7.277-7.277ZM32.063,40.453a.169.169,0,0,1-.24,0l-.156-.156,0,0-6.439-6.438,0,0-.437-.437a.17.17,0,0,1,0-.24L28,29.957l7.277,7.277Zm0,0" transform="translate(0.001 -0.5)"/>
  <path id="Trazado_181" data-name="Trazado 181" d="M319.748,464.824H309.542a1.265,1.265,0,1,0,0,2.529h10.206a1.265,1.265,0,0,0,0-2.529Zm0,0" transform="translate(-269.295 -406.11)"/>
  <path id="Trazado_182" data-name="Trazado 182" d="M452.2,464.824h-5.944a1.265,1.265,0,0,0,0,2.529H452.2a1.265,1.265,0,1,0,0-2.529Zm0,0" transform="translate(-388.722 -406.11)"/>
  <path id="Trazado_183" data-name="Trazado 183" d="M95.8,351.762a1.261,1.261,0,1,0-.9-.369A1.273,1.273,0,0,0,95.8,351.762Zm0,0" transform="translate(-82.584 -305.137)"/>
</svg>
