<svg xmlns="http://www.w3.org/2000/svg" width="40.486" height="40.487" viewBox="0 0 40.486 40.487">
  <path id="bone" d="M12.621,40.487a6.275,6.275,0,0,1-6.268-6.268c0-.028,0-.057,0-.085H6.268A6.268,6.268,0,1,1,9.783,22.675L22.675,9.782a6.268,6.268,0,1,1,11.46-3.514c0,.028,0,.057,0,.085h.085A6.268,6.268,0,1,1,30.7,17.812L17.812,30.7a6.269,6.269,0,0,1-5.191,9.782ZM8.9,33.074a3.9,3.9,0,1,0,6.479-1.61,1.186,1.186,0,0,1,0-1.677L29.787,15.374a1.186,1.186,0,0,1,1.677,0A3.894,3.894,0,1,0,33.074,8.9a1.187,1.187,0,0,1-1.483-1.483,3.9,3.9,0,1,0-6.479,1.609,1.186,1.186,0,0,1,0,1.677L10.7,25.112a1.186,1.186,0,0,1-1.677,0A3.894,3.894,0,1,0,7.415,31.59,1.186,1.186,0,0,1,8.9,33.074Zm0,0" transform="translate(0)"/>
</svg>
