<svg xmlns="http://www.w3.org/2000/svg" width="41.408" height="41.408" viewBox="0 0 41.408 41.408">
  <g id="calendario" transform="translate(6.295 -2.285)">
    <g id="Grupo_94" data-name="Grupo 94" transform="translate(-6.295 2.285)">
      <g id="Grupo_93" data-name="Grupo 93">
        <circle id="Elipse_1" data-name="Elipse 1" cx="1.5" cy="1.5" r="1.5" transform="translate(28.939 15.777)" fill="#fff"/>
        <path id="Trazado_190" data-name="Trazado 190" d="M34.938,3.235h-2.1V1.617a1.617,1.617,0,1,0-3.235,0V3.235H22.24V1.617a1.617,1.617,0,0,0-3.235,0V3.235H11.727V1.617a1.617,1.617,0,0,0-3.235,0V3.235H6.47A6.477,6.477,0,0,0,0,9.7V34.938a6.477,6.477,0,0,0,6.47,6.47H18.844a1.617,1.617,0,1,0,0-3.235H6.47a3.239,3.239,0,0,1-3.235-3.235V9.7A3.239,3.239,0,0,1,6.47,6.47H8.492V8.087a1.617,1.617,0,1,0,3.235,0V6.47h7.279V8.087a1.617,1.617,0,0,0,3.235,0V6.47H29.6V8.087a1.617,1.617,0,1,0,3.235,0V6.47h2.1A3.239,3.239,0,0,1,38.173,9.7v9.22a1.617,1.617,0,0,0,3.235,0V9.7A6.477,6.477,0,0,0,34.938,3.235Z" fill="#fff"/>
        <path id="Trazado_191" data-name="Trazado 191" d="M279.786,270a9.786,9.786,0,1,0,9.786,9.786A9.8,9.8,0,0,0,279.786,270Zm0,16.337a6.551,6.551,0,1,1,6.551-6.551A6.558,6.558,0,0,1,279.786,286.337Z" transform="translate(-248.164 -248.164)" fill="#fff"/>
        <path id="Trazado_192" data-name="Trazado 192" d="M374.963,333.316h-.728v-1.7a1.617,1.617,0,1,0-3.235,0v3.316a1.617,1.617,0,0,0,1.617,1.617h2.345a1.617,1.617,0,0,0,0-3.235Z" transform="translate(-340.996 -303.311)" fill="#fff"/>
        <ellipse id="Elipse_2" data-name="Elipse 2" cx="1" cy="1.5" rx="1" ry="1.5" transform="translate(23.939 15.777)" fill="#fff"/>
        <ellipse id="Elipse_3" data-name="Elipse 3" cx="1" cy="1.5" rx="1" ry="1.5" transform="translate(15.939 22.777)" fill="#fff"/>
        <ellipse id="Elipse_4" data-name="Elipse 4" cx="1" cy="1.5" rx="1" ry="1.5" transform="translate(8.939 15.777)" fill="#fff"/>
        <ellipse id="Elipse_5" data-name="Elipse 5" cx="1" cy="1.5" rx="1" ry="1.5" transform="translate(8.939 22.777)" fill="#fff"/>
        <circle id="Elipse_6" data-name="Elipse 6" cx="1" cy="1" r="1" transform="translate(8.939 29.777)" fill="#fff"/>
        <circle id="Elipse_7" data-name="Elipse 7" cx="1" cy="1" r="1" transform="translate(15.939 29.777)" fill="#fff"/>
        <ellipse id="Elipse_8" data-name="Elipse 8" cx="1" cy="1.5" rx="1" ry="1.5" transform="translate(15.939 15.777)" fill="#fff"/>
      </g>
    </g>
  </g>
</svg>
