<svg id="heartbeat" xmlns="http://www.w3.org/2000/svg" width="64.727" height="48.092" viewBox="0 0 64.727 48.092">
  <g id="Grupo_6" data-name="Grupo 6" transform="translate(5.504 0)">
    <g id="Grupo_5" data-name="Grupo 5">
      <path id="Trazado_3" data-name="Trazado 3" d="M91.12,66.656a15.233,15.233,0,0,0-21.543,0l-1.209,1.209-1.209-1.209A15.233,15.233,0,0,0,45.615,88.2l21.618,21.618a1.606,1.606,0,0,0,2.27,0L91.12,88.2a15.233,15.233,0,0,0,0-21.543ZM88.85,85.929,68.368,106.412,47.885,85.929a12.024,12.024,0,0,1,17-17l2.344,2.344a1.6,1.6,0,0,0,2.269,0l2.344-2.344a12.024,12.024,0,0,1,17,17Z" transform="translate(-41.16 -62.194)" fill="#fff"/>
    </g>
  </g>
  <g id="Grupo_8" data-name="Grupo 8" transform="translate(0 20.276)">
    <g id="Grupo_7" data-name="Grupo 7" transform="translate(0 0)">
      <path id="Trazado_4" data-name="Trazado 4" d="M7.489,213.806H1.6a1.6,1.6,0,1,0,0,3.21H7.489a1.6,1.6,0,1,0,0-3.21Z" transform="translate(0 -213.806)" fill="#fff"/>
    </g>
  </g>
  <g id="Grupo_10" data-name="Grupo 10" transform="translate(6.954 11.768)">
    <g id="Grupo_9" data-name="Grupo 9" transform="translate(0 0)">
      <path id="Trazado_5" data-name="Trazado 5" d="M102.814,158.751H87.455l-2.39-5.257a1.07,1.07,0,0,0-1.982.085L78.2,167.345,72.259,150.9a1.07,1.07,0,0,0-.956-.705,1.04,1.04,0,0,0-1.018.613l-3.991,8.48H53.066a1.07,1.07,0,0,0-1.07,1.07c0,.591.7,1.018,1.3,1.018H67.2c.415,0,.566-.187.743-.562l3.181-6.76L77.2,170.884a1.07,1.07,0,0,0,1.006.706h0a1.069,1.069,0,0,0,1.005-.712l5-14.086,1.579,3.472a1.391,1.391,0,0,0,1.2.576H103.04c.591,0,.844-.427.844-1.018A1.07,1.07,0,0,0,102.814,158.751Z" transform="translate(-51.996 -150.192)" fill="#fff"/>
    </g>
  </g>
  <g id="Grupo_12" data-name="Grupo 12" transform="translate(56.703 19.741)">
    <g id="Grupo_11" data-name="Grupo 11">
      <path id="Trazado_6" data-name="Trazado 6" d="M430.419,209.806H425.6a1.6,1.6,0,1,0,0,3.21h4.814a1.6,1.6,0,0,0,0-3.21Z" transform="translate(-424 -209.806)" fill="#fff"/>
    </g>
  </g>
</svg>
