<svg id="antiguo" xmlns="http://www.w3.org/2000/svg" width="63.604" height="71.102" viewBox="0 0 63.604 71.102">
  <path id="Trazado_187" data-name="Trazado 187" d="M415.393,404a1.389,1.389,0,1,0,.982.407A1.4,1.4,0,0,0,415.393,404Zm0,0" transform="translate(-356.511 -347.896)"/>
  <path id="Trazado_188" data-name="Trazado 188" d="M394.726,444a4.722,4.722,0,1,0,4.722,4.722A4.727,4.727,0,0,0,394.726,444Zm0,6.666a1.944,1.944,0,1,1,1.944-1.944A1.947,1.947,0,0,1,394.726,450.666Zm0,0" transform="translate(-335.844 -382.341)"/>
  <path id="Trazado_189" data-name="Trazado 189" d="M57.495,41.382V51.938a1.389,1.389,0,0,0,2.777,0V33.121a4.843,4.843,0,0,0-4.837-4.837H41.758a4.448,4.448,0,0,0-4.195-6.11h-3.3c-.463,0-.931-.023-1.389-.068a8.329,8.329,0,0,1-7.2-6.507,6.76,6.76,0,0,0-.737-1.856,6.976,6.976,0,1,0-7.565-3.1,6.746,6.746,0,0,0-4.256,3.509,33.977,33.977,0,0,0-3.461,14.9v5.108a18.057,18.057,0,0,0,1.512,7.218L9.556,50.163,2.965,58.648l0,0a1.224,1.224,0,0,0-.075.107l-.007.01h0L.307,62.939a2.045,2.045,0,0,0,.666,2.815L9.3,70.9a1.39,1.39,0,0,0,1.911-.452,6.9,6.9,0,0,0,.848-5.246,7.019,7.019,0,0,0-.539-1.493l3-3.376-.466,3.656c0,.005,0,.01,0,.015,0,.028,0,.055-.006.084s0,.042,0,.063c0,0,0,.009,0,.014v5.555A1.389,1.389,0,0,0,15.434,71.1H25.88a1.389,1.389,0,0,0,1.389-1.389,6.937,6.937,0,0,0-2.762-5.539L26.738,50.62a17.46,17.46,0,0,0-.583-8.077l-2.727-8.6v-5.6a22.766,22.766,0,0,0,10.833,2.715h2.351a4.8,4.8,0,0,0-.462,2.06V69.668a1.389,1.389,0,1,0,2.777,0V41.382Zm0-8.261V38.6H38.928V33.121a2.062,2.062,0,0,1,2.06-2.06H55.435A2.062,2.062,0,0,1,57.495,33.121ZM23.286,2.777A4.193,4.193,0,1,1,19.093,6.97a4.2,4.2,0,0,1,4.193-4.193ZM9.379,67.679l-6.325-3.9,1.459-2.363,2.98,1.84a4.173,4.173,0,0,1,1.886,4.428Zm.46-6.261-3.731-2.29L11.958,51.6a1.384,1.384,0,0,0,.27-.6l1.085-5.938a17.908,17.908,0,0,0,2.045,2.277l.733.687-.946,7.421Zm6.983,6.907V65.547h3.5a4.174,4.174,0,0,1,3.929,2.777ZM24,50.169l-2.074,12.6H17.01l.834-6.54a0,0,0,0,0,0,0l1.091-8.557a1.39,1.39,0,0,0-.428-1.189l-1.251-1.172a15.336,15.336,0,0,1-4.765-9.757h8.531l2.485,7.832A14.666,14.666,0,0,1,24,50.169ZM22.85,24.74l-.016-.01a20.4,20.4,0,0,1-2.8-2.338,1.389,1.389,0,1,0-1.964,1.964,23.266,23.266,0,0,0,2.578,2.224c0,.016,0,.033,0,.048v6.146H12.427v-3.72A31.192,31.192,0,0,1,15.6,15.379a3.932,3.932,0,0,1,7.361.852A11.1,11.1,0,0,0,32.6,24.87c.547.054,1.106.081,1.659.081h3.3a1.719,1.719,0,0,1,1.739,1.6,1.666,1.666,0,0,1-1.665,1.729H34.261A19.957,19.957,0,0,1,22.85,24.74Zm0,0" transform="translate(-0.001 0)"/>
</svg>
