<svg xmlns="http://www.w3.org/2000/svg" width="76.34" height="57.653" viewBox="0 0 76.34 57.653">
  <path id="utero_1_" data-name="utero (1)" d="M65.157,4.478H61.172A30.527,30.527,0,0,0,53.249,1.19C47.387-.276,42.219.607,38.169,3.738,34.121.607,28.953-.276,23.09,1.19a30.527,30.527,0,0,0-7.923,3.288H11.182A11.182,11.182,0,0,0,9.373,26.695c1.145,2.709,4.479,4.622,8.519,4.622,5.016,0,8.946-2.948,8.946-6.71s-3.93-6.71-8.946-6.71c-3.862,0-7.078,1.747-8.354,4.268A6.709,6.709,0,0,1,11.182,8.951h2.676a5.685,5.685,0,0,0,2.589,3.4,13.73,13.73,0,0,0,4.97,1.476c2.973.491,4.848.927,5.806,2.839C28.54,19.287,28.7,24.01,28.873,29.01q.04,1.184.086,2.4a9.136,9.136,0,0,0,2.5,6.1V58.154H44.879V37.505a9.138,9.138,0,0,0,2.5-6.1c.033-.81.06-1.611.087-2.4.171-5,.333-9.723,1.648-12.347.962-1.917,2.836-2.352,5.809-2.841a13.662,13.662,0,0,0,4.969-1.472,5.68,5.68,0,0,0,2.588-3.4h2.676A6.709,6.709,0,0,1,66.8,22.165c-1.277-2.521-4.492-4.268-8.354-4.268-5.016,0-8.946,2.947-8.946,6.71s3.93,6.71,8.946,6.71c4.04,0,7.374-1.912,8.519-4.622A11.182,11.182,0,0,0,65.157,4.478ZM17.892,22.37c2.73,0,4.473,1.324,4.473,2.237s-1.743,2.237-4.473,2.237-4.473-1.325-4.473-2.237S15.161,22.37,17.892,22.37ZM54.2,9.409c-2.966.487-7.029,1.154-9.082,5.249-1.755,3.5-1.924,8.457-2.121,14.2-.027.782-.054,1.574-.086,2.376-.1,2.555-1.448,3.366-2.5,4.2V53.682H35.933V35.429c-1.035-.813-2.4-1.623-2.5-4.2-.032-.8-.059-1.594-.086-2.376-.2-5.742-.366-10.7-2.121-14.2-2.049-4.086-6.11-4.757-9.075-5.247-2.607-.431-3.591-.722-3.935-1.519A25.964,25.964,0,0,1,24.286,5.5c5.071-1.238,9.21-.3,12.3,2.794l1.581,1.581L39.751,8.3C42.843,5.2,46.983,4.264,52.053,5.5a25.968,25.968,0,0,1,6.075,2.39c-.344.8-1.325,1.089-3.93,1.517Zm4.248,17.434c-2.73,0-4.473-1.325-4.473-2.237s1.743-2.237,4.473-2.237,4.473,1.324,4.473,2.237S61.178,26.843,58.447,26.843Zm0,0" transform="translate(0.001 -0.501)"/>
</svg>
