<svg xmlns="http://www.w3.org/2000/svg" width="12.399" height="12.68" viewBox="0 0 12.399 12.68">
  <g id="herramientas-y-utensilios" transform="translate(-5.411)">
    <g id="Grupo_390" data-name="Grupo 390" transform="translate(5.411)">
      <path id="Trazado_248" data-name="Trazado 248" d="M118.615,258.53a.288.288,0,0,0-.288-.288h-1a.288.288,0,0,0-.288.288v1a.288.288,0,0,0,.288.288h1a.288.288,0,0,0,.288-.288v-1Z" transform="translate(-114.135 -251.534)" fill="#888"/>
      <path id="Trazado_249" data-name="Trazado 249" d="M215.25,258.53a.288.288,0,0,0-.288-.288h-1a.288.288,0,0,0-.288.288v1a.288.288,0,0,0,.288.288h1a.288.288,0,0,0,.288-.288Z" transform="translate(-208.26 -251.534)" fill="#888"/>
      <path id="Trazado_250" data-name="Trazado 250" d="M311.878,258.53a.288.288,0,0,0-.288-.288h-1a.288.288,0,0,0-.288.288v1a.288.288,0,0,0,.288.288h1a.288.288,0,0,0,.288-.288Z" transform="translate(-302.378 -251.534)" fill="#888"/>
      <path id="Trazado_251" data-name="Trazado 251" d="M118.615,355.163a.288.288,0,0,0-.288-.288h-1a.288.288,0,0,0-.288.288v1a.288.288,0,0,0,.288.288h1a.288.288,0,0,0,.288-.288v-1Z" transform="translate(-114.135 -345.657)" fill="#888"/>
      <path id="Trazado_252" data-name="Trazado 252" d="M215.25,355.163a.288.288,0,0,0-.288-.288h-1a.288.288,0,0,0-.288.288v1a.288.288,0,0,0,.288.288h1a.288.288,0,0,0,.288-.288Z" transform="translate(-208.26 -345.657)" fill="#888"/>
      <path id="Trazado_253" data-name="Trazado 253" d="M311.878,355.163a.288.288,0,0,0-.288-.288h-1a.288.288,0,0,0-.288.288v1a.288.288,0,0,0,.288.288h1a.288.288,0,0,0,.288-.288v-1Z" transform="translate(-302.378 -345.657)" fill="#888"/>
      <path id="Trazado_254" data-name="Trazado 254" d="M16.707,54.148v1.534a1.253,1.253,0,0,1-1.256,1.252h-.792A1.259,1.259,0,0,1,13.4,55.681V54.142H9.826v1.539a1.259,1.259,0,0,1-1.263,1.252H7.77a1.253,1.253,0,0,1-1.256-1.252V54.148a1.142,1.142,0,0,0-1.1,1.136v8.989a1.142,1.142,0,0,0,1.137,1.143H16.674a1.144,1.144,0,0,0,1.137-1.143V55.283A1.142,1.142,0,0,0,16.707,54.148Zm-.368,9.565a.491.491,0,0,1-.491.491h-8.5a.491.491,0,0,1-.491-.491V59.069a.491.491,0,0,1,.491-.491h8.495a.491.491,0,0,1,.491.491v4.643Z" transform="translate(-5.411 -52.736)" fill="#888"/>
      <path id="Trazado_255" data-name="Trazado 255" d="M79.981,3.375h.783a.43.43,0,0,0,.431-.43V.431A.431.431,0,0,0,80.764,0h-.783a.431.431,0,0,0-.431.431V2.945A.43.43,0,0,0,79.981,3.375Z" transform="translate(-77.624)" fill="#888"/>
      <path id="Trazado_256" data-name="Trazado 256" d="M344.889,3.375h.784a.43.43,0,0,0,.43-.43V.431a.43.43,0,0,0-.43-.431h-.784a.431.431,0,0,0-.431.431V2.945A.43.43,0,0,0,344.889,3.375Z" transform="translate(-335.651)" fill="#888"/>
    </g>
  </g>
</svg>
