<svg xmlns="http://www.w3.org/2000/svg" width="60" height="60.009" viewBox="0 0 60 60.009">
  <g id="medical_bag-first_aid_bag-clipboard-document-check" data-name="medical bag-first aid bag-clipboard-document-check" transform="translate(-2 -1.991)">
    <path id="Trazado_263" data-name="Trazado 263" d="M24,5a3,3,0,1,0,3,3A3,3,0,0,0,24,5Zm0,4a1,1,0,1,1,1-1A1,1,0,0,1,24,9Z"/>
    <path id="Trazado_264" data-name="Trazado 264" d="M61,28H50V21a1,1,0,0,0-1-1H46V11a3.009,3.009,0,0,0-3-3H34.82A3.01,3.01,0,0,0,32,6H29.66A6,6,0,0,0,18.34,6H16a3.01,3.01,0,0,0-2.82,2H5a3.009,3.009,0,0,0-3,3V59a3.009,3.009,0,0,0,3,3H61a1,1,0,0,0,1-1V29A1,1,0,0,0,61,28ZM48,22v6H46V25a1,1,0,0,0-1-1H27a1,1,0,0,0-1,1v3H24V22Zm-4,4v2H28V26ZM35,10h8a1,1,0,0,1,1,1v9H42V13a1,1,0,0,0-1-1H35ZM15,9a1,1,0,0,1,1-1h3.1a.988.988,0,0,0,.98-.8,4,4,0,0,1,7.84,0,.988.988,0,0,0,.98.8H32a1,1,0,0,1,1,1v4H15ZM10,60H5a1,1,0,0,1-1-1V11a1,1,0,0,1,1-1h8v2H7a1,1,0,0,0-1,1V57a1,1,0,0,0,1,1h3Zm0-31V56H8V14h5a1,1,0,0,0,1,1H34a1,1,0,0,0,1-1h5v6H23a1,1,0,0,0-1,1v7H11A1,1,0,0,0,10,29ZM60,60H12V56H60Zm0-6H12V36H60Zm0-20H12V30H60Z"/>
    <path id="Trazado_265" data-name="Trazado 265" d="M42,42H39V39a1,1,0,0,0-1-1H34a1,1,0,0,0-1,1v3H30a1,1,0,0,0-1,1v4a1,1,0,0,0,1,1h3v3a1,1,0,0,0,1,1h4a1,1,0,0,0,1-1V48h3a1,1,0,0,0,1-1V43A1,1,0,0,0,42,42Zm-1,4H38a1,1,0,0,0-1,1v3H35V47a1,1,0,0,0-1-1H31V44h3a1,1,0,0,0,1-1V40h2v3a1,1,0,0,0,1,1h3Z"/>
  </g>
</svg>
