<svg id="rinon" xmlns="http://www.w3.org/2000/svg" width="60.092" height="75.163" viewBox="0 0 60.092 75.163">
  <path id="Trazado_149" data-name="Trazado 149" d="M36.781,48.6a1.273,1.273,0,0,1-.168-.011,1.252,1.252,0,0,1-1.075-1.407c3.442-25.709-15.906-33.4-16.731-33.718a1.252,1.252,0,0,1,.888-2.342c.22.084,22.037,8.665,18.326,36.392A1.251,1.251,0,0,1,36.781,48.6Z" transform="translate(4.535 2.777)"/>
  <path id="Trazado_150" data-name="Trazado 150" d="M30.729,62.338c-2.426,0-4.217-3.1-5.293-5.705-.7-1.7-1.427-3.632-2.151-5.739a1.252,1.252,0,1,1,2.367-.814c.706,2.059,1.411,3.941,2.1,5.6,1.117,2.7,2.367,4.158,2.978,4.158a5.1,5.1,0,0,0,2.711-1.467c.533-.481,12.726-11.633,13.295-26.127a1.252,1.252,0,0,1,2.5.1c-.6,15.275-12.724,26.632-14.1,27.876a7.18,7.18,0,0,1-4.4,2.126Z" transform="translate(5.85 7.816)"/>
  <path id="Trazado_151" data-name="Trazado 151" d="M3.667,54.89C3.517,54.89,0,54.82,0,48.718a1.252,1.252,0,0,1,.536-1.027c.081-.056,8.153-5.774,8.228-12.367-1.264-8.307-.2-13.558,3.164-15.608a2.638,2.638,0,0,1,3.981,2.618,18.426,18.426,0,0,0-.12,4.165c4.994-4.006,7.541-3.448,8.821-2.23a3.083,3.083,0,0,1,1.119,2.382c.026,2.12-1.8,4.439-5.574,7.091a.349.349,0,0,0-.144.336.282.282,0,0,0,.187.25c.522.18,2.6-.367,3.981-.73,1.167-.308,2.372-.626,3.521-.824a3.061,3.061,0,0,1,3.269,1.655,2.934,2.934,0,0,1-.6,3.507,23.506,23.506,0,0,1-4.684,2.807c4.722,3.176,6.466,5.591,5.477,7.567-.024.046-.05.091-.078.134a3.1,3.1,0,0,1-2.234,1.212c-2.465.309-5.8-1.406-9.918-5.1a2.442,2.442,0,0,0-2.018-.6,2.283,2.283,0,0,0-1.649,1.122,12.1,12.1,0,0,0-.779,1.631c-2.643,6.732-10.29,8.1-10.615,8.158a1.065,1.065,0,0,1-.209.019ZM2.519,49.339c.109,2.15.776,2.88,1.133,3.025,1.107-.245,6.6-1.7,8.508-6.563a14.7,14.7,0,0,1,.943-1.973,4.813,4.813,0,0,1,3.423-2.34,4.946,4.946,0,0,1,4.081,1.2c5.052,4.531,7.581,4.741,8.3,4.393-.144-.5-1.273-2.118-5.422-4.791a2.021,2.021,0,0,1,.7-3.68,19.316,19.316,0,0,0,4.467-2.5.445.445,0,0,0,.075-.557.555.555,0,0,0-.606-.314c-1.042.18-2.195.485-3.309.777-2.647.7-4.329,1.1-5.517.647a2.8,2.8,0,0,1-1.774-2.282,2.851,2.851,0,0,1,1.189-2.69c4.11-2.887,4.49-4.522,4.508-4.955a.608.608,0,0,0-.177-.513A.725.725,0,0,1,22.9,26.1c-.692-.69-2.871.253-5.421,2.351a2.574,2.574,0,0,1-2.619.391A2.539,2.539,0,0,1,13.3,26.751,21.028,21.028,0,0,1,13.427,22a.133.133,0,0,0-.064-.143.109.109,0,0,0-.134,0c-1.368.835-3.444,3.657-1.978,13.188a1.075,1.075,0,0,1,.016.19c0,6.9-6.732,12.565-8.749,14.106Zm26.544-2.357s0,0,0,0A0,0,0,0,0,29.063,46.981Z" transform="translate(0 4.866)"/>
  <path id="Trazado_152" data-name="Trazado 152" d="M35.626,75.166a7.991,7.991,0,0,1-1.755-.193c-3.374-.752-6.126-3.649-8.178-8.607a133.86,133.86,0,0,1-5.037-15.074,1.252,1.252,0,0,1,1.933-1.352c3.164,2.246,4.8,2.262,5.353,2.009-.15-.5-1.288-2.123-5.421-4.785a2.021,2.021,0,0,1,.7-3.68,19.27,19.27,0,0,0,4.467-2.5.445.445,0,0,0,.075-.557.555.555,0,0,0-.606-.314c-1.042.18-2.195.485-3.309.777-2.647.7-4.329,1.1-5.517.647a2.805,2.805,0,0,1-1.774-2.281,2.851,2.851,0,0,1,1.189-2.69c4.11-2.887,4.49-4.522,4.508-4.955a.608.608,0,0,0-.177-.513.725.725,0,0,1-.145-.124c-.692-.69-2.871.253-5.421,2.351a2.574,2.574,0,0,1-2.619.391,2.539,2.539,0,0,1-1.564-2.093,20.424,20.424,0,0,1,.13-4.751.132.132,0,0,0-.064-.143.109.109,0,0,0-.134,0c-1.089.665-1.858,2.122-2.223,4.215a1.252,1.252,0,0,1-2.366.319,40.457,40.457,0,0,1-3.745-12.3A16.253,16.253,0,0,1,11.951,3.291C19.862-1.36,32.587-3.387,48.284,13.37,55.835,21.43,59.473,30.354,59.1,39.894,58.4,57.835,44,71.174,43.388,71.733,42.165,72.85,39.194,75.166,35.626,75.166ZM23.936,53.66a122.7,122.7,0,0,0,4.071,11.748c1.721,4.16,3.877,6.557,6.409,7.121,3.181.7,6.153-1.615,7.285-2.647.143-.13,14.237-13.182,14.9-30.091.347-8.845-3.065-17.161-10.14-24.714C31.895-.47,20.345,1.257,13.223,5.445a13.744,13.744,0,0,0-6.8,13.243,33.9,33.9,0,0,0,2.217,8.481,6.356,6.356,0,0,1,2.324-2.584A2.639,2.639,0,0,1,14.943,27.2a18.431,18.431,0,0,0-.12,4.165c4.994-4.006,7.541-3.448,8.821-2.23a3.083,3.083,0,0,1,1.119,2.382c.026,2.12-1.8,4.439-5.574,7.091a.349.349,0,0,0-.144.336.282.282,0,0,0,.187.25c.526.182,2.605-.367,3.981-.73,1.167-.308,2.372-.626,3.521-.824A3.061,3.061,0,0,1,30,39.3a2.934,2.934,0,0,1-.6,3.507,23.522,23.522,0,0,1-4.684,2.807c4.724,3.176,6.466,5.591,5.477,7.567a1.441,1.441,0,0,1-.083.141,3.044,3.044,0,0,1-2,1.161,7.006,7.006,0,0,1-4.183-.824ZM28.1,51.843h0S28.1,51.843,28.1,51.843Z" transform="translate(0.967 -0.003)"/>
</svg>
