<svg id="teeth" xmlns="http://www.w3.org/2000/svg" width="33.355" height="39.185" viewBox="0 0 33.355 39.185">
  <g id="Grupo_24" data-name="Grupo 24" transform="translate(2.285 1.738)">
    <g id="Grupo_23" data-name="Grupo 23" transform="translate(0)">
      <path id="Trazado_9" data-name="Trazado 9" d="M72.792,23.354a1.49,1.49,0,0,0-2.072-.383,10.392,10.392,0,0,0-2.483,2.32,1.49,1.49,0,0,0,2.355,1.825,8.7,8.7,0,0,1,1.816-1.69,1.49,1.49,0,0,0,.384-2.072Z" transform="translate(-67.939 -22.708)"/>
    </g>
  </g>
  <g id="Grupo_26" data-name="Grupo 26">
    <g id="Grupo_25" data-name="Grupo 25">
      <path id="Trazado_10" data-name="Trazado 10" d="M70.848,7.606a9.587,9.587,0,0,0-6.078-6.49,12.387,12.387,0,0,0-9.074.591A11.556,11.556,0,0,0,43.153,2a11.61,11.61,0,0,0-2.426,2.248,1.7,1.7,0,0,0-.184.257,11.8,11.8,0,0,0,.332,14.825c.045.066.095.136.145.207s.105.147.147.211c.015.023.031.045.048.067.671.9,1.338,4.314,1.622,5.773.075.385.141.724.195.976.141.705.285,1.468.378,2.262a23.784,23.784,0,0,0,1.545,6.56c.988,2.371,2.378,3.647,4.132,3.793.041,0,.083.005.124.005h.2c2.175,0,3.384-2.5,4.28-4.951.007-.021.014-.041.021-.062L54.937,30.3l1.2,3.858c.007.024.015.048.024.071.843,2.305,2.092,4.951,4.28,4.951h.2c.043,0,.086,0,.129-.005,1.206-.1,2.9-.848,4.126-3.789a26.256,26.256,0,0,0,1.546-6.56c.094-.8.238-1.561.375-2.249.057-.268.123-.606.2-.99.284-1.461.951-4.88,1.628-5.784A13.671,13.671,0,0,0,70.848,7.606Zm-4.6,10.421c-1,1.333-1.593,4.068-2.163,6.993-.071.366-.134.687-.191.959-.153.765-.31,1.6-.414,2.478a23.423,23.423,0,0,1-1.338,5.784c-.48,1.153-1.071,1.881-1.589,1.964h0c-.161-.123-.748-.7-1.58-2.96l-2.174-7.016c-.008-.028-.018-.055-.028-.082a1.938,1.938,0,0,0-3.635,0c-.009.023-.017.048-.025.072L50.88,33.24c-.853,2.322-1.407,2.855-1.561,2.965h-.029c-.709-.1-1.3-1.269-1.593-1.984a21.244,21.244,0,0,1-1.328-5.74c-.106-.9-.263-1.736-.42-2.518-.054-.255-.117-.578-.188-.945-.565-2.9-1.154-5.612-2.137-6.956-.054-.079-.117-.168-.18-.257-.052-.073-.1-.145-.146-.208a1.477,1.477,0,0,0-.11-.145,8.825,8.825,0,0,1-.277-11.141,1.689,1.689,0,0,0,.162-.227,8.726,8.726,0,0,1,1.767-1.628A8.459,8.459,0,0,1,49.659,2.98a8.329,8.329,0,0,1,5.01,1.634,1.489,1.489,0,0,0,1.6.129,9.671,9.671,0,0,1,7.6-.789A6.551,6.551,0,0,1,68.006,8.5,10.685,10.685,0,0,1,66.246,18.028Z" transform="translate(-38.087)"/>
    </g>
  </g>
</svg>
