<svg id="paciente" xmlns="http://www.w3.org/2000/svg" width="57.038" height="71.888" viewBox="0 0 57.038 71.888">
  <g id="Grupo_58" data-name="Grupo 58" transform="translate(0 0)">
    <g id="Grupo_57" data-name="Grupo 57" transform="translate(0 0)">
      <path id="Trazado_138" data-name="Trazado 138" d="M105.623,45.123h-11.2v-.813A15.3,15.3,0,0,0,99.5,40.634a16.606,16.606,0,0,0,2.74-4.059h1.274a4.865,4.865,0,0,0,1.036-9.619,3.164,3.164,0,0,0,1.934-2.912V22.186a3.164,3.164,0,0,0-2.159-3c-.986-6.265-4.89-11.4-10.064-13.558a7.615,7.615,0,0,0,1.054-3.894A1.74,1.74,0,0,0,93.577,0H84.088A1.74,1.74,0,0,0,82.35,1.738,7.615,7.615,0,0,0,83.4,5.632C78.23,7.786,74.326,12.926,73.341,19.19a3.164,3.164,0,0,0-2.159,3v1.859a3.164,3.164,0,0,0,1.934,2.912,4.865,4.865,0,0,0,1.036,9.619h1.274a16.6,16.6,0,0,0,2.74,4.059,15.307,15.307,0,0,0,5.072,3.676v.813h-11.2a4.3,4.3,0,0,0-4.3,4.3v13.71H65.169a3.163,3.163,0,0,1-3.159-3.159v-25.1h.579a1.757,1.757,0,0,0,1.755-1.755V31.047h2.932a1.757,1.757,0,0,0,1.755-1.755V11.164a1.757,1.757,0,0,0-1.755-1.755h-.27V7.722a1.757,1.757,0,0,0-1.755-1.755H56.663a1.757,1.757,0,0,0-1.755,1.755V9.409h-.27a1.757,1.757,0,0,0-1.755,1.755V29.292a1.757,1.757,0,0,0,1.755,1.755H57.57v2.074a1.757,1.757,0,0,0,1.755,1.755H59.9v25.1a5.271,5.271,0,0,0,5.265,5.265h2.575v4.787a1.866,1.866,0,0,0,1.864,1.864h38.448a1.866,1.866,0,0,0,1.864-1.864v-20.6A4.3,4.3,0,0,0,105.623,45.123ZM57.014,8.073H64.9V9.409H57.014Zm-2.025,6.669h5.422a1.053,1.053,0,1,0,0-2.106H54.989V11.515H66.925v1.121H65.606a1.053,1.053,0,0,0,0,2.106h1.319V25.414H54.989Zm0,14.2V27.52H66.925v1.421Zm4.687,3.829V31.047h2.562V32.77Zm46.6-1.06a2.762,2.762,0,0,1-2.759,2.759h-.434a16.218,16.218,0,0,0,.795-4.973v-.519A2.761,2.761,0,0,1,106.274,31.711ZM93.2,2.106a5.435,5.435,0,0,1-1,2.845,14.038,14.038,0,0,0-6.728,0,5.436,5.436,0,0,1-1-2.845H93.2ZM74.151,34.47a2.758,2.758,0,0,1-.361-5.492V29.5a16.218,16.218,0,0,0,.795,4.973Zm.19-9.371a1.054,1.054,0,0,1-1.053-1.053V22.187a1.054,1.054,0,0,1,1.053-1.053h18.5a1.053,1.053,0,1,0,0-2.106H75.5C76.82,11.963,82.3,6.649,88.833,6.649s12.012,5.314,13.328,12.379H98.6a1.053,1.053,0,1,0,0,2.106h4.723a1.054,1.054,0,0,1,1.053,1.053v1.859a1.054,1.054,0,0,1-1.053,1.053Zm5.375,14.11A14.527,14.527,0,0,1,75.9,29.5V27.2h25.874V29.5a14.526,14.526,0,0,1-3.82,9.713,12.027,12.027,0,0,1-18.234,0Zm4.575,8.02a1.053,1.053,0,0,0,1.053-1.053V45.047a13.732,13.732,0,0,0,6.978,0v1.129a1.053,1.053,0,0,0,1.053,1.053h3.638a11.908,11.908,0,0,1-16.36,0Zm-6.562,0h0a14.183,14.183,0,0,0,22.209,0H101.4l-.247.311a15.365,15.365,0,0,1-24.646,0l-.247-.311h1.466ZM96.119,69.346a.442.442,0,0,1-.436.436H90.246V65.319a1.891,1.891,0,0,0-.015-.223l1.717-1.717a.44.44,0,0,1,.312-.129.415.415,0,0,1,.295.119.435.435,0,0,1-.01.607l-.866.866a1.053,1.053,0,0,0,.744,1.8h3.26a.442.442,0,0,1,.436.436v2.27Zm11.7.436H98.186a2.519,2.519,0,0,0,.039-.436v-2.27a2.545,2.545,0,0,0-2.542-2.542H94.628a2.53,2.53,0,0,0-.584-2.654,2.5,2.5,0,0,0-1.784-.736,2.53,2.53,0,0,0-1.8.746l-1.623,1.623a1.855,1.855,0,0,0-.454-.058H85.544a1.053,1.053,0,0,0,0,2.106h2.6v4.221H69.851V56.615H74.2a.57.57,0,0,1,.569.569v7.324a1.053,1.053,0,0,0,1.053,1.053h4.81a1.053,1.053,0,1,0,0-2.106H76.873V57.184A2.678,2.678,0,0,0,74.2,54.509H69.85V49.421a2.194,2.194,0,0,1,2.191-2.191h1.53l1.29,1.622a17.468,17.468,0,0,0,27.943,0l1.29-1.622h1.53a2.194,2.194,0,0,1,2.191,2.191Z" transform="translate(-52.883 0)"/>
    </g>
  </g>
  <g id="Grupo_60" data-name="Grupo 60" transform="translate(40.895 54.951)">
    <g id="Grupo_59" data-name="Grupo 59" transform="translate(0)">
      <path id="Trazado_139" data-name="Trazado 139" d="M355.6,392.44a3.651,3.651,0,0,0-5.163,0l-.031.031-.031-.031a3.651,3.651,0,0,0-5.163,5.163l4.066,4.066a1.576,1.576,0,0,0,2.224,0l4.1-4.069a3.651,3.651,0,0,0,0-5.163Zm-1.487,3.671-3.721,3.694-3.691-3.691a1.545,1.545,0,1,1,2.185-2.185l.775.775a1.053,1.053,0,0,0,1.489,0l.776-.776a1.545,1.545,0,0,1,2.187,2.182Z" transform="translate(-344.141 -391.37)"/>
    </g>
  </g>
  <g id="Grupo_62" data-name="Grupo 62" transform="translate(25.974 28.9)">
    <g id="Grupo_61" data-name="Grupo 61" transform="translate(0)">
      <path id="Trazado_140" data-name="Trazado 140" d="M244.5,206.143a1.053,1.053,0,0,0-1.489,0,2.365,2.365,0,0,1-3.341,0,1.053,1.053,0,0,0-1.489,1.489,4.473,4.473,0,0,0,6.319,0A1.053,1.053,0,0,0,244.5,206.143Z" transform="translate(-237.876 -205.834)"/>
    </g>
  </g>
  <g id="Grupo_64" data-name="Grupo 64" transform="translate(38.989 28.901)">
    <g id="Grupo_63" data-name="Grupo 63" transform="translate(0)">
      <path id="Trazado_141" data-name="Trazado 141" d="M337.2,206.144a1.053,1.053,0,0,0-1.489,0,2.365,2.365,0,0,1-3.341,0,1.053,1.053,0,0,0-1.489,1.489,4.473,4.473,0,0,0,6.319,0A1.053,1.053,0,0,0,337.2,206.144Z" transform="translate(-330.572 -205.835)"/>
    </g>
  </g>
  <g id="Grupo_66" data-name="Grupo 66" transform="translate(34.897 29.888)">
    <g id="Grupo_65" data-name="Grupo 65" transform="translate(0)">
      <path id="Trazado_142" data-name="Trazado 142" d="M304.1,216.272h-.569v-2.354a1.053,1.053,0,1,0-2.106,0v2.7a1.757,1.757,0,0,0,1.755,1.755h.92a1.053,1.053,0,0,0,0-2.106Z" transform="translate(-301.423 -212.865)"/>
    </g>
  </g>
  <g id="Grupo_68" data-name="Grupo 68" transform="translate(30.965 36.877)">
    <g id="Grupo_67" data-name="Grupo 67" transform="translate(0)">
      <path id="Trazado_143" data-name="Trazado 143" d="M283.082,262.956a1.053,1.053,0,0,0-1.489,0,4.512,4.512,0,0,1-6.374,0,1.053,1.053,0,0,0-1.489,1.489,6.621,6.621,0,0,0,9.352,0A1.053,1.053,0,0,0,283.082,262.956Z" transform="translate(-273.421 -262.647)"/>
    </g>
  </g>
  <g id="Grupo_70" data-name="Grupo 70" transform="translate(4.65 16.834)">
    <g id="Grupo_69" data-name="Grupo 69" transform="translate(0)">
      <path id="Trazado_144" data-name="Trazado 144" d="M91.7,122.216H90.431v-1.271a1.053,1.053,0,0,0-2.106,0v1.271H87.054a1.053,1.053,0,0,0,0,2.106h1.271v1.271a1.053,1.053,0,0,0,2.106,0v-1.271H91.7a1.053,1.053,0,0,0,0-2.106Z" transform="translate(-86.001 -119.892)"/>
    </g>
  </g>
</svg>
