<svg xmlns="http://www.w3.org/2000/svg" width="46.407" height="29.578" viewBox="0 0 46.407 29.578">
  <g id="view" transform="translate(0 0)">
    <g id="Grupo_2" data-name="Grupo 2" transform="translate(0)">
      <g id="Grupo_1" data-name="Grupo 1">
        <path id="Trazado_1" data-name="Trazado 1" d="M46.112,106.721C45.7,106.154,35.819,92.835,23.2,92.835S.709,106.154.294,106.721a1.531,1.531,0,0,0,0,1.806c.414.567,10.293,13.886,22.909,13.886S45.7,109.094,46.112,108.527A1.53,1.53,0,0,0,46.112,106.721ZM23.2,119.353c-9.293,0-17.342-8.84-19.724-11.73C5.858,104.73,13.89,95.895,23.2,95.895c9.293,0,17.341,8.839,19.724,11.73C40.548,110.517,32.516,119.353,23.2,119.353Z" transform="translate(0 -92.835)" fill="#333"/>
      </g>
    </g>
    <g id="Grupo_4" data-name="Grupo 4" transform="translate(14.024 5.61)">
      <g id="Grupo_3" data-name="Grupo 3">
        <path id="Trazado_2" data-name="Trazado 2" d="M163.9,154.725a9.179,9.179,0,1,0,9.179,9.179A9.19,9.19,0,0,0,163.9,154.725Zm0,15.3a6.12,6.12,0,1,1,6.12-6.12A6.126,6.126,0,0,1,163.9,170.024Z" transform="translate(-154.722 -154.725)" fill="#333"/>
      </g>
    </g>
  </g>
</svg>
