<svg xmlns="http://www.w3.org/2000/svg" width="39.292" height="39.292" viewBox="0 0 39.292 39.292">
  <path id="pacifier" d="M36.542,16.026a9.4,9.4,0,0,0-.1-13.38A9.393,9.393,0,0,0,20.53,8.718q-.029.412-.088.816a22.765,22.765,0,0,0-6-2.992c-3.383-1-5.157-.152-6.049.74C6.877,8.8,6.811,11.485,8.2,14.867a12.471,12.471,0,0,0-4.511,2.9,12.609,12.609,0,1,0,20.73,13.321,11.639,11.639,0,0,0,4.316.994A4.451,4.451,0,0,0,32,30.894c.894-.894,1.747-2.672.735-6.065a22.815,22.815,0,0,0-3-6q.373-.048.751-.072a9.382,9.382,0,0,0,6.049-2.733ZM19.889,33.972A10.306,10.306,0,1,1,9.2,16.954c.406.749.866,1.508,1.372,2.264a7.654,7.654,0,0,0-3.435,1.995,7.736,7.736,0,1,0,12.933,7.505c.757.507,1.515.967,2.264,1.373a10.339,10.339,0,0,1-2.441,3.881ZM12.06,21.27a35.589,35.589,0,0,0,2.8,3.156,35.583,35.583,0,0,0,3.149,2.8,5.433,5.433,0,1,1-9.248-4.38,5.376,5.376,0,0,1,3.2-1.554c.033,0,.066-.01.1-.017Zm18.47,4.217c.529,1.773.471,3.151-.157,3.78-.815.815-2.786.67-5.274-.388a29,29,0,0,1-8.611-6.08,29.007,29.007,0,0,1-6.08-8.612c-1.058-2.488-1.2-4.461-.388-5.276.627-.627,2-.686,3.765-.161a21.407,21.407,0,0,1,6.044,3.163,10.49,10.49,0,0,1-2.376,3.694l-.251.251a1.151,1.151,0,0,0,0,1.628l4.487,4.488a1.151,1.151,0,0,0,1.629,0l.056-.056a10.763,10.763,0,0,1,3.965-2.506,21.507,21.507,0,0,1,3.191,6.077Zm-7.994-5.925-2.909-2.91a13.147,13.147,0,0,0,3.2-7.772A7.07,7.07,0,0,1,29.773,2.3a7.086,7.086,0,0,1,.575,14.157A13.378,13.378,0,0,0,22.536,19.562Z" transform="translate(-0.001 -0.001)"/>
</svg>
