<svg id="farmaco" xmlns="http://www.w3.org/2000/svg" width="61.688" height="65.719" viewBox="0 0 61.688 65.719">
  <g id="Grupo_86" data-name="Grupo 86" transform="translate(12.835 16.172)">
    <g id="Grupo_85" data-name="Grupo 85">
      <path id="Trazado_177" data-name="Trazado 177" d="M116.98,125.994a1.284,1.284,0,1,0,1.284,1.284A1.284,1.284,0,0,0,116.98,125.994Z" transform="translate(-115.696 -125.994)"/>
    </g>
  </g>
  <g id="Grupo_88" data-name="Grupo 88" transform="translate(14.119 35.039)">
    <g id="Grupo_87" data-name="Grupo 87">
      <path id="Trazado_178" data-name="Trazado 178" d="M137.247,278.12H133.4v-3.85a1.284,1.284,0,1,0-2.567,0v3.85h-3.85a1.283,1.283,0,1,0,0,2.567h3.85v3.85a1.284,1.284,0,1,0,2.567,0v-3.85h3.85a1.283,1.283,0,1,0,0-2.567Z" transform="translate(-125.696 -272.986)"/>
    </g>
  </g>
  <g id="Grupo_90" data-name="Grupo 90" transform="translate(0)">
    <g id="Grupo_89" data-name="Grupo 89" transform="translate(0)">
      <path id="Trazado_179" data-name="Trazado 179" d="M76.013,41.329a10.262,10.262,0,0,0-14.026-3.758l-5.214,3.01V29.435a6.464,6.464,0,0,0-1.283-3.85l-6.417-8.556V13.384a3.857,3.857,0,0,0,2.567-3.63V3.85A3.855,3.855,0,0,0,47.789,0h-23.1a3.855,3.855,0,0,0-3.851,3.85v5.9a3.857,3.857,0,0,0,2.567,3.63v3.644l-6.418,8.557a6.463,6.463,0,0,0-1.283,3.85V54.292a6.425,6.425,0,0,0,6.417,6.417H42.746a10.258,10.258,0,0,0,13.948,3.63l15.561-8.985A10.276,10.276,0,0,0,76.013,41.329ZM23.4,3.85a1.285,1.285,0,0,1,1.283-1.284h23.1A1.285,1.285,0,0,1,49.072,3.85v5.9a1.285,1.285,0,0,1-1.284,1.283h-23.1A1.285,1.285,0,0,1,23.4,9.755V3.85ZM19.038,27.124l6.674-8.9a1.283,1.283,0,0,0,.257-.77v-3.85H46.5v2.567H34.954a1.284,1.284,0,0,0,0,2.567H47.147l6.289,8.384a3.884,3.884,0,0,1,.743,1.883H18.3A3.882,3.882,0,0,1,19.038,27.124Zm3.08,31.018a3.855,3.855,0,0,1-3.85-3.85V53H41.587a10.285,10.285,0,0,0,.062,5.147H22.119Zm20.475-7.7H18.268V31.574H54.206V42.062l-7.781,4.493A10.192,10.192,0,0,0,42.594,50.441ZM55.41,62.116a7.7,7.7,0,1,1-7.7-13.338l6.967-4.022,7.7,13.338Zm15.561-8.984L64.6,56.81,56.9,43.472l6.371-3.678a7.7,7.7,0,1,1,7.7,13.338Z" transform="translate(-15.701)"/>
    </g>
  </g>
</svg>
