<svg id="icon_2_" data-name="icon (2)" xmlns="http://www.w3.org/2000/svg" width="22.968" height="22.968" viewBox="0 0 22.968 22.968">
  <g id="Grupo_415" data-name="Grupo 415">
    <path id="Trazado_262" data-name="Trazado 262" d="M21.125,15.076a13.04,13.04,0,0,1-4.1-.652,1.872,1.872,0,0,0-1.821.384l-2.582,1.95A14.272,14.272,0,0,1,6.21,10.341L8.1,7.826a1.856,1.856,0,0,0,.457-1.881,13.06,13.06,0,0,1-.655-4.1A1.845,1.845,0,0,0,6.061,0H1.843A1.845,1.845,0,0,0,0,1.843,21.149,21.149,0,0,0,21.125,22.968a1.845,1.845,0,0,0,1.843-1.843V16.919A1.845,1.845,0,0,0,21.125,15.076Z"/>
  </g>
</svg>
