<svg id="psychiatry_1_" data-name="psychiatry (1)" xmlns="http://www.w3.org/2000/svg" width="40.08" height="53.148" viewBox="0 0 40.08 53.148">
  <g id="Grupo_48" data-name="Grupo 48" transform="translate(0)">
    <g id="Grupo_47" data-name="Grupo 47" transform="translate(0)">
      <path id="Trazado_135" data-name="Trazado 135" d="M100.071,14.128a6.055,6.055,0,0,0-1.719-4.434c-.032-.033-.068-.062-.1-.095A5.2,5.2,0,0,0,93.1,3.485c-.026,0-.051.006-.078.006A6.984,6.984,0,0,0,87,0,6.906,6.906,0,0,0,83.53.95a6.944,6.944,0,0,0-9.574,2.619,5.191,5.191,0,0,0-6.12,5.144c0,.071.017.143.019.214a6.066,6.066,0,0,0-2.5,3.711,6.1,6.1,0,0,0,2.168,6.076,16.869,16.869,0,0,0-2.2,4.626l-.394,1.312a18.727,18.727,0,0,1-4.682,7.84.87.87,0,0,0,0,1.232l.408.408a12.526,12.526,0,0,1,3.694,8.917,5.744,5.744,0,0,0,8.465,5.057l1.99-1.072v6.114H91.361V45.831a6.063,6.063,0,0,1,1.167-3.587L95.106,38.7a16.754,16.754,0,0,0,3.225-9.916v-.6a16.787,16.787,0,0,0-2.339-8.553A6.156,6.156,0,0,0,100.071,14.128ZM96.588,28.185v.6a15.018,15.018,0,0,1-2.891,8.89l-2.579,3.547a7.793,7.793,0,0,0-1.5,4.612V51.4H76.549V46.1l1.658-.893-.827-1.535-5.391,2.9a4,4,0,0,1-5.9-3.522A14.25,14.25,0,0,0,62.083,33.1,20.485,20.485,0,0,0,66.6,25.153L67,23.841A15.061,15.061,0,0,1,68.96,19.7l.084-.109a6.1,6.1,0,0,0,2.277.449h6.1a2.617,2.617,0,0,1,2.614,2.614v1.636l-.391,1.564-2.059-1.235-3.426,3.426L75.393,30.1l-2.329.583v4.845l2.329.583-1.235,2.059L77.584,41.6l2.059-1.235.583,2.328h4.845l.583-2.329L87.713,41.6l3.426-3.426L89.9,36.113l2.328-.583V30.686L89.9,30.1l1.235-2.059-3.426-3.426-2.059,1.235-.391-1.564V22.653a2.617,2.617,0,0,1,2.614-2.614h5.879c.146,0,.29-.011.435-.021A15.048,15.048,0,0,1,96.588,28.185Zm-8.461,2.262a6.164,6.164,0,0,1,.281.672l.154.445,1.927.482V34.17l-1.927.482-.154.445a6.093,6.093,0,0,1-.281.672l-.207.425L88.945,37.9l-1.5,1.5-1.707-1.025-.425.207a6.164,6.164,0,0,1-.672.281l-.445.154-.482,1.928H81.585L81.1,39.022l-.445-.154a6.092,6.092,0,0,1-.672-.281l-.425-.207L77.854,39.4l-1.5-1.5L77.376,36.2l-.207-.425a6.168,6.168,0,0,1-.281-.672l-.154-.445-1.927-.482V32.045l1.927-.482.154-.445a6.1,6.1,0,0,1,.281-.672l.207-.425-1.025-1.707,1.5-1.5,1.707,1.025.425-.207a6.163,6.163,0,0,1,.672-.281l.445-.154.482-1.927H83.71l.482,1.927.445.154a6.093,6.093,0,0,1,.672.281l.425.207,1.707-1.025,1.5,1.5-1.025,1.707ZM93.755,18.3H87.876a4.361,4.361,0,0,0-4.356,4.356v.871H81.777v-.871A4.361,4.361,0,0,0,77.42,18.3h-6.1a4.342,4.342,0,0,1-3.382-1.611,4.4,4.4,0,0,1-.876-3.692,4.33,4.33,0,0,1,3.311-3.311l-.355-1.705c-.129.027-.251.073-.376.109a3.484,3.484,0,0,1,3.421-2.859c.076,0,.15.012.225.017a6.963,6.963,0,0,0-.225,1.726h1.743a5.228,5.228,0,1,1,10.455,0H87a6.939,6.939,0,0,0-1.959-4.832,5.154,5.154,0,0,1,6.145,1.723,5.154,5.154,0,0,0-1.225.671l1.046,1.392a3.472,3.472,0,0,1,5.547,2.5,6.076,6.076,0,0,0-2.584-.578V9.584a4.356,4.356,0,0,1,4.354,4.491A4.5,4.5,0,0,1,93.755,18.3Z" transform="translate(-59.994 0)"/>
    </g>
  </g>
  <g id="Grupo_50" data-name="Grupo 50" transform="translate(18.298 28.752)">
    <g id="Grupo_49" data-name="Grupo 49" transform="translate(0)">
      <path id="Trazado_136" data-name="Trazado 136" d="M232.36,264a4.356,4.356,0,1,0,4.356,4.356A4.361,4.361,0,0,0,232.36,264Zm0,6.97a2.614,2.614,0,1,1,2.614-2.614A2.617,2.617,0,0,1,232.36,270.97Z" transform="translate(-228.004 -264)"/>
    </g>
  </g>
  <g id="Grupo_52" data-name="Grupo 52" transform="translate(8.714 3.485)">
    <g id="Grupo_51" data-name="Grupo 51" transform="translate(0)">
      <path id="Trazado_137" data-name="Trazado 137" d="M165.271,39.841a2.615,2.615,0,0,0-2.564,2.127l-6.472,1a2.6,2.6,0,0,0-2.095-1.36l-1.321-4.846a2.614,2.614,0,1,0-3.9-1.145l-5.06,4.554a2.584,2.584,0,0,0-1.239-.326,2.618,2.618,0,1,0,2.413,1.614l5.06-4.554a2.572,2.572,0,0,0,1.044.307l1.321,4.846a2.611,2.611,0,1,0,4.052,2.631l6.472-1a2.609,2.609,0,1,0,2.291-3.848Zm-22.653,3.485a.871.871,0,1,1,.871-.871A.872.872,0,0,1,142.618,43.327Zm8.713-7.841a.871.871,0,1,1,.871-.871A.872.872,0,0,1,151.331,35.485Zm2.614,9.584a.871.871,0,1,1,.871-.871A.872.872,0,0,1,153.944,45.069Zm11.327-1.743a.871.871,0,1,1,.871-.871A.872.872,0,0,1,165.271,43.327Z" transform="translate(-140.004 -32)"/>
    </g>
  </g>
  <g id="Grupo_54" data-name="Grupo 54" transform="translate(27.01 9.584)">
    <g id="Grupo_53" data-name="Grupo 53" transform="translate(0)">
      <rect id="Rect치ngulo_27" data-name="Rect치ngulo 27" width="1.743" height="1.743"/>
    </g>
  </g>
  <g id="Grupo_56" data-name="Grupo 56" transform="translate(15.684 13.94)">
    <g id="Grupo_55" data-name="Grupo 55">
      <rect id="Rect치ngulo_28" data-name="Rect치ngulo 28" width="1.743" height="1.743"/>
    </g>
  </g>
</svg>
