<svg id="radiologia" xmlns="http://www.w3.org/2000/svg" width="61.946" height="61.946" viewBox="0 0 61.946 61.946">
  <path id="Trazado_160" data-name="Trazado 160" d="M401.043,448h-.01a1.038,1.038,0,1,0,.01,0Z" transform="translate(-350.443 -392.249)"/>
  <path id="Trazado_161" data-name="Trazado 161" d="M401.043,416h-.01a1.038,1.038,0,1,0,.01,0Z" transform="translate(-350.443 -364.379)"/>
  <path id="Trazado_162" data-name="Trazado 162" d="M401.043,384h-.01a1.038,1.038,0,1,0,.01,0Z" transform="translate(-350.443 -336.508)"/>
  <path id="Trazado_163" data-name="Trazado 163" d="M401.043,352h-.01a1.038,1.038,0,1,0,.01,0Z" transform="translate(-350.443 -308.638)"/>
  <path id="Trazado_164" data-name="Trazado 164" d="M401.043,320h-.01a1.041,1.041,0,1,0,.01,0Z" transform="translate(-350.443 -280.768)"/>
  <path id="Trazado_165" data-name="Trazado 165" d="M401.043,288h-.01a1.038,1.038,0,1,0,.01,0Z" transform="translate(-350.443 -252.897)"/>
  <path id="Trazado_166" data-name="Trazado 166" d="M401.043,256h-.01a1.038,1.038,0,1,0,.01,0Z" transform="translate(-350.443 -225.027)"/>
  <path id="Trazado_167" data-name="Trazado 167" d="M401.043,224h-.01a1.038,1.038,0,1,0,.01,0Z" transform="translate(-350.443 -197.157)"/>
  <path id="Trazado_168" data-name="Trazado 168" d="M401.043,64h-.01a1.038,1.038,0,1,0,.01,0Z" transform="translate(-350.443 -57.805)"/>
  <path id="Trazado_169" data-name="Trazado 169" d="M401.043,192h-.01a1.038,1.038,0,1,0,.01,0Z" transform="translate(-350.443 -169.287)"/>
  <path id="Trazado_170" data-name="Trazado 170" d="M401.043,160h-.01a1.038,1.038,0,1,0,.01,0Z" transform="translate(-350.443 -141.416)"/>
  <path id="Trazado_171" data-name="Trazado 171" d="M401.043,128h-.01a1.038,1.038,0,1,0,.01,0Z" transform="translate(-350.443 -113.546)"/>
  <path id="Trazado_172" data-name="Trazado 172" d="M401.043,96h-.01a1.038,1.038,0,1,0,.01,0Z" transform="translate(-350.443 -85.676)"/>
  <path id="Trazado_173" data-name="Trazado 173" d="M439.227,77.946a1.032,1.032,0,0,0,1.032-1.032V17.032A1.032,1.032,0,0,0,439.227,16,7.235,7.235,0,0,0,432,23.227V70.719A7.235,7.235,0,0,0,439.227,77.946Zm-5.162-54.719a5.171,5.171,0,0,1,4.13-5.059V75.778a5.171,5.171,0,0,1-4.13-5.059Z" transform="translate(-378.314 -16)"/>
  <path id="Trazado_174" data-name="Trazado 174" d="M84.73,198.184h-.341v-3.1h.07c2.282-.005,5.363-.011,6.178.329a1.032,1.032,0,0,0,2.012-.328,1.52,1.52,0,0,0-.463-1.095c-.945-.943-3.178-.982-7.73-.972h-.066a1.032,1.032,0,0,0-2.065,0h-.066c-4.556-.01-6.786.029-7.731.972a1.52,1.52,0,0,0-.463,1.095,1.032,1.032,0,0,0,2.012.328c.815-.34,3.9-.334,6.178-.329h.07v3.1h-.341c-5.892-.01-8.543.029-9.54,1.025A1.467,1.467,0,0,0,72,200.25a1.032,1.032,0,0,0,1.99.386c.964-.4,4.841-.393,7.989-.387h.345v3.1h-.066c-4.556-.01-6.786.029-7.731.972a1.52,1.52,0,0,0-.463,1.095,1.032,1.032,0,0,0,2.012.328c.815-.34,3.9-.335,6.178-.329h.07v3.1h-3.1a1.032,1.032,0,0,0-1.032,1.032,5.162,5.162,0,1,0,10.324,0,1.032,1.032,0,0,0-1.032-1.032h-3.1v-3.1h.07c2.282-.006,5.363-.011,6.178.329a1.032,1.032,0,0,0,2.012-.328,1.52,1.52,0,0,0-.463-1.095c-.945-.943-3.178-.981-7.73-.972h-.066v-3.1h.345c3.146-.006,7.026-.011,7.989.387a1.032,1.032,0,0,0,1.99-.386,1.468,1.468,0,0,0-.443-1.041C93.273,198.212,90.627,198.174,84.73,198.184Zm1.547,12.391a3.1,3.1,0,0,1-5.841,0Z" transform="translate(-64.773 -169.277)"/>
  <path id="Trazado_175" data-name="Trazado 175" d="M17.032,65.557h8.259v8.259a4.13,4.13,0,1,0,8.259,0V65.557h2.065v8.259a4.13,4.13,0,1,0,8.259,0V65.557h8.259a1.032,1.032,0,0,0,1.032-1.032V35.616a1.032,1.032,0,0,0-1.032-1.032H48.963a7.237,7.237,0,0,0-7.152-6.195H38.4a9.365,9.365,0,0,0,.7-.953,10.35,10.35,0,0,0,1.676-5.242,6.195,6.195,0,0,0-12.389,0,10.35,10.35,0,0,0,1.676,5.242,9.363,9.363,0,0,0,.7.953h-3.41A7.237,7.237,0,0,0,20.2,34.584H17.032A1.032,1.032,0,0,0,16,35.616V64.524A1.032,1.032,0,0,0,17.032,65.557Zm14.454,8.259a2.065,2.065,0,0,1-4.13,0V65.557h4.13Zm10.324,0a2.065,2.065,0,0,1-4.13,0V65.557h4.13ZM30.454,22.195a4.13,4.13,0,0,1,8.259,0c0,2.559-2.136,6.195-4.13,6.195S30.454,24.753,30.454,22.195Zm-3.1,8.259H41.811a5.171,5.171,0,0,1,5.059,4.13H22.3a5.171,5.171,0,0,1,5.058-4.13Zm-9.292,6.195H51.1V63.492H18.065Z" transform="translate(-16 -16)"/>
  <path id="Trazado_176" data-name="Trazado 176" d="M244.649,114.589V65.032A1.032,1.032,0,0,0,243.616,64H225.032a1.032,1.032,0,0,0,0,2.065h17.551v47.492H231.227a1.032,1.032,0,0,0,0,2.065h12.389A1.032,1.032,0,0,0,244.649,114.589Z" transform="translate(-197.157 -57.805)"/>
</svg>
