<svg id="rinon" xmlns="http://www.w3.org/2000/svg" width="50.033" height="62.582" viewBox="0 0 50.033 62.582">
  <path id="Trazado_149" data-name="Trazado 149" d="M33.637,42.308a1.06,1.06,0,0,1-.14-.009,1.043,1.043,0,0,1-.9-1.172c2.866-21.406-13.244-27.813-13.931-28.074a1.043,1.043,0,0,1,.739-1.95c.183.07,18.348,7.215,15.259,30.3a1.042,1.042,0,0,1-1.032.9Z" transform="translate(0.763 0.465)"/>
  <path id="Trazado_150" data-name="Trazado 150" d="M29.471,57.1c-2.02,0-3.511-2.583-4.407-4.75-.586-1.416-1.188-3.024-1.791-4.778a1.042,1.042,0,1,1,1.971-.678c.588,1.715,1.175,3.282,1.745,4.659.93,2.248,1.971,3.462,2.48,3.462a4.249,4.249,0,0,0,2.257-1.222c.444-.4,10.6-9.686,11.069-21.754a1.043,1.043,0,0,1,2.084.081c-.5,12.718-10.594,22.174-11.744,23.21a5.978,5.978,0,0,1-3.664,1.77Z" transform="translate(0.985 1.313)"/>
  <path id="Trazado_151" data-name="Trazado 151" d="M3.053,48.938C2.928,48.938,0,48.879,0,43.8a1.042,1.042,0,0,1,.446-.855c.068-.047,6.788-4.808,6.851-10.3-1.053-6.916-.166-11.288,2.634-13a2.2,2.2,0,0,1,3.315,2.18,15.341,15.341,0,0,0-.1,3.468c4.158-3.336,6.278-2.871,7.345-1.857a2.567,2.567,0,0,1,.932,1.984c.022,1.765-1.5,3.7-4.641,5.9a.291.291,0,0,0-.12.279.235.235,0,0,0,.155.208,11.659,11.659,0,0,0,3.315-.608c.972-.256,1.975-.521,2.931-.686A2.549,2.549,0,0,1,25.785,31.9a2.443,2.443,0,0,1-.5,2.92,19.571,19.571,0,0,1-3.9,2.337c3.932,2.645,5.384,4.655,4.561,6.3-.02.039-.042.076-.065.112a2.581,2.581,0,0,1-1.86,1.009c-2.053.257-4.826-1.171-8.258-4.247a2.033,2.033,0,0,0-1.68-.5,1.9,1.9,0,0,0-1.373.934,10.076,10.076,0,0,0-.648,1.358c-2.2,5.605-8.568,6.746-8.839,6.792a.887.887,0,0,1-.174.016ZM2.1,44.316c.091,1.79.646,2.4.943,2.518.921-.2,5.492-1.411,7.084-5.464a12.237,12.237,0,0,1,.785-1.643,4.007,4.007,0,0,1,2.85-1.948,4.118,4.118,0,0,1,3.4,1c4.206,3.772,6.312,3.948,6.913,3.658-.12-.414-1.06-1.764-4.515-3.989a1.682,1.682,0,0,1,.584-3.064A16.083,16.083,0,0,0,23.86,33.3a.371.371,0,0,0,.063-.464.462.462,0,0,0-.5-.262c-.867.15-1.827.4-2.755.647-2.2.582-3.6.919-4.594.539a2.334,2.334,0,0,1-1.477-1.9,2.374,2.374,0,0,1,.99-2.24C19,27.221,19.32,25.86,19.336,25.5a.507.507,0,0,0-.147-.427.6.6,0,0,1-.121-.1c-.576-.574-2.39.211-4.514,1.958a2.143,2.143,0,0,1-2.181.325,2.114,2.114,0,0,1-1.3-1.743,17.508,17.508,0,0,1,.108-3.957.11.11,0,0,0-.053-.119.091.091,0,0,0-.112,0c-1.139.7-2.868,3.045-1.647,10.981a.9.9,0,0,1,.014.158c0,5.745-5.605,10.462-7.284,11.745Zm22.1-1.963s0,0,0,0A0,0,0,0,0,24.2,42.353Z" transform="translate(0 0.816)"/>
  <path id="Trazado_152" data-name="Trazado 152" d="M30.3,62.585a6.654,6.654,0,0,1-1.461-.161c-2.809-.626-5.1-3.039-6.809-7.167a111.455,111.455,0,0,1-4.194-12.551,1.043,1.043,0,0,1,1.609-1.126c2.634,1.87,4,1.884,4.457,1.673-.125-.42-1.073-1.768-4.514-3.984a1.682,1.682,0,0,1,.584-3.064A16.045,16.045,0,0,0,23.7,34.124a.371.371,0,0,0,.063-.464.462.462,0,0,0-.5-.262c-.867.15-1.827.4-2.755.647-2.2.582-3.6.919-4.594.539a2.336,2.336,0,0,1-1.477-1.9,2.374,2.374,0,0,1,.99-2.24c3.422-2.4,3.738-3.765,3.754-4.126a.507.507,0,0,0-.147-.427.6.6,0,0,1-.121-.1c-.576-.574-2.39.211-4.514,1.958a2.143,2.143,0,0,1-2.181.325,2.114,2.114,0,0,1-1.3-1.743,17.005,17.005,0,0,1,.108-3.956.11.11,0,0,0-.053-.119.091.091,0,0,0-.112,0A4.935,4.935,0,0,0,9,25.763a1.042,1.042,0,0,1-1.97.266A33.685,33.685,0,0,1,3.913,15.788,13.532,13.532,0,0,1,10.593,2.74c6.587-3.873,17.182-5.56,30.252,8.392,6.287,6.711,9.316,14.141,9,22.085-.583,14.938-12.571,26.044-13.081,26.51A10.244,10.244,0,0,1,30.3,62.585ZM20.572,44.679a102.167,102.167,0,0,0,3.39,9.782C25.4,57.924,27.19,59.92,29.3,60.39c2.649.587,5.123-1.345,6.066-2.2.119-.108,11.854-10.976,12.406-25.054.289-7.365-2.552-14.288-8.442-20.577C27.2-.391,17.582,1.047,11.652,4.534A11.443,11.443,0,0,0,5.989,15.561a28.227,28.227,0,0,0,1.846,7.061,5.292,5.292,0,0,1,1.935-2.152,2.2,2.2,0,0,1,3.315,2.181,15.346,15.346,0,0,0-.1,3.468c4.158-3.336,6.278-2.871,7.345-1.857a2.567,2.567,0,0,1,.932,1.984c.022,1.765-1.5,3.7-4.641,5.9a.291.291,0,0,0-.12.279.235.235,0,0,0,.155.208,11.6,11.6,0,0,0,3.315-.608c.972-.256,1.975-.521,2.931-.686a2.549,2.549,0,0,1,2.722,1.378,2.443,2.443,0,0,1-.5,2.92,19.585,19.585,0,0,1-3.9,2.337c3.933,2.645,5.384,4.655,4.561,6.3a1.2,1.2,0,0,1-.069.118,2.535,2.535,0,0,1-1.665.966,5.833,5.833,0,0,1-3.483-.686Zm3.468-1.513h0S24.041,43.166,24.04,43.166Z" transform="translate(0.163 -0.003)"/>
</svg>
