<svg id="surface1" xmlns="http://www.w3.org/2000/svg" width="36.163" height="42.467" viewBox="0 0 36.163 42.467">
  <path id="Trazado_131" data-name="Trazado 131" d="M36.121,11.521v-.033c-.018-.408-.031-.84-.038-1.32a4.5,4.5,0,0,0-4.238-4.409A17.465,17.465,0,0,1,19.956.749L19.929.723a2.718,2.718,0,0,0-3.694,0l-.028.026A17.467,17.467,0,0,1,4.321,5.76,4.5,4.5,0,0,0,.083,10.169c-.007.477-.02.908-.038,1.319l0,.077C-.052,16.544-.17,22.74,1.9,28.365a21.385,21.385,0,0,0,5.13,7.991,26.838,26.838,0,0,0,10.04,5.939,3.109,3.109,0,0,0,.411.112,3.039,3.039,0,0,0,1.195,0,3.118,3.118,0,0,0,.413-.113,26.856,26.856,0,0,0,10.029-5.942,21.415,21.415,0,0,0,5.131-7.993C36.333,22.718,36.216,16.51,36.121,11.521ZM31.914,27.5c-2.186,5.928-6.649,10-13.644,12.445a.626.626,0,0,1-.079.021.559.559,0,0,1-.219,0,.621.621,0,0,1-.078-.021c-7-2.442-11.468-6.51-13.653-12.439-1.911-5.184-1.8-10.872-1.707-15.89v-.028c.019-.431.032-.883.04-1.379A2,2,0,0,1,4.46,8.248,21.863,21.863,0,0,0,11.88,6.615a19.415,19.415,0,0,0,6.047-4.063.23.23,0,0,1,.308,0,19.422,19.422,0,0,0,6.047,4.063A21.864,21.864,0,0,0,31.7,8.248a2,2,0,0,1,1.885,1.958c.007.5.02.951.04,1.379C33.725,16.609,33.831,22.3,31.914,27.5Zm0,0" transform="translate(0 0.001)" fill="#00cae9"/>
  <path id="Trazado_132" data-name="Trazado 132" d="M100.982,128.41a10.584,10.584,0,1,0,10.583,10.583A10.6,10.6,0,0,0,100.982,128.41Zm0,18.675a8.092,8.092,0,1,1,8.091-8.092A8.1,8.1,0,0,1,100.982,147.085Zm0,0" transform="translate(-82.9 -117.759)" fill="#00cae9"/>
  <path id="Trazado_133" data-name="Trazado 133" d="M162.05,212.356l-4.916,4.916-1.334-1.334a1.246,1.246,0,1,0-1.762,1.762l2.215,2.215a1.246,1.246,0,0,0,1.762,0l5.8-5.8a1.246,1.246,0,0,0-1.762-1.762Zm0,0" transform="translate(-140.927 -194.408)" fill="#00cae9"/>
</svg>
