<svg id="virus" xmlns="http://www.w3.org/2000/svg" width="64.745" height="64.744" viewBox="0 0 64.745 64.744">
  <g id="Grupo_72" data-name="Grupo 72" transform="translate(0 0)">
    <g id="Grupo_71" data-name="Grupo 71">
      <path id="Trazado_153" data-name="Trazado 153" d="M58.126,37.116a5.09,5.09,0,0,0-2.57.7l-4.578-1.743a19.087,19.087,0,0,0,.361-3.7A18.8,18.8,0,0,0,48.2,21.912l6.994-6.994a7.578,7.578,0,1,0-5.365-5.365l-6.994,6.994a18.759,18.759,0,0,0-5.374-2.453l.9-4.341a3.793,3.793,0,1,0-3.193-1.076,3.823,3.823,0,0,0,.717.564l-.9,4.344a19.26,19.26,0,0,0-2.609-.179,19,19,0,0,0-13.31,5.456L10.11,12.395a5.053,5.053,0,1,0-3.7,5.127l8.947,6.462A18.947,18.947,0,0,0,14.007,37.1L9.789,38.5a3.794,3.794,0,1,0-3.982,5.986A3.8,3.8,0,0,0,10.583,40.9L14.8,39.506a19,19,0,0,0,4.059,6.177l-6.465,8.952a5.053,5.053,0,1,0,5.127,3.7l6.462-8.947A19.032,19.032,0,0,0,41.705,48.9l3.816,5.815a3.792,3.792,0,1,0,2.114-1.389L43.82,47.513a18.964,18.964,0,0,0,4.911-5.532l4.579,1.743a5.058,5.058,0,1,0,4.817-6.609ZM8.011,41.147a1.264,1.264,0,1,1-.126-.96A1.266,1.266,0,0,1,8.011,41.147Zm40.528,14.6a1.264,1.264,0,1,1-1.265,1.264A1.266,1.266,0,0,1,48.539,55.745ZM36.954,5.1a1.264,1.264,0,1,1-.371.894A1.255,1.255,0,0,1,36.954,5.1Zm23.36,38.339a2.513,2.513,0,0,1-1.536,1.178,2.525,2.525,0,0,1-3.1-1.785c-.023-.088-.042-.174-.055-.257a1.265,1.265,0,0,0-.8-.978L48.6,39.226a1.264,1.264,0,0,0-1.576.607,16.453,16.453,0,0,1-5.511,6.215,1.217,1.217,0,0,0-.232.151,16.48,16.48,0,0,1-17.053.457,1.264,1.264,0,0,0-1.652.358l-7.5,10.378a1.265,1.265,0,0,0-.129,1.258,2.53,2.53,0,1,1-2.308-1.493,2.572,2.572,0,0,1,.258.013,1.266,1.266,0,0,0,1.152-.518l7.5-10.382a1.265,1.265,0,0,0-.179-1.68,16.443,16.443,0,0,1-3.287-20.36,1.265,1.265,0,0,0-.358-1.652l-10.379-7.5a1.265,1.265,0,0,0-1.259-.128,2.53,2.53,0,1,1,1.494-2.308,2.56,2.56,0,0,1-.013.258,1.265,1.265,0,0,0,.518,1.153l10.382,7.5a1.265,1.265,0,0,0,1.68-.179,16.487,16.487,0,0,1,15.519-5.113l.042.011.023,0a16.284,16.284,0,0,1,6.479,2.929,1.264,1.264,0,0,0,1.652-.118l8.3-8.3a1.264,1.264,0,0,0,.283-1.356A5.053,5.053,0,1,1,55.308,12.3a1.265,1.265,0,0,0-1.356.283l-8.3,8.3a1.265,1.265,0,0,0-.118,1.652,16.3,16.3,0,0,1,3.272,9.844,16.506,16.506,0,0,1-.534,4.17,1.265,1.265,0,0,0,.774,1.5l6.226,2.37a1.264,1.264,0,0,0,1.249-.2,2.511,2.511,0,0,1,.943-.481,2.525,2.525,0,0,1,3.1,1.788A2.512,2.512,0,0,1,60.315,43.439Z" transform="translate(0 -0.001)"/>
    </g>
  </g>
  <g id="Grupo_74" data-name="Grupo 74" transform="translate(19.082 20.156)">
    <g id="Grupo_73" data-name="Grupo 73">
      <path id="Trazado_154" data-name="Trazado 154" d="M158.964,160.029a1.264,1.264,0,0,0-1.727-.463,13.888,13.888,0,0,0-6.273,7.743,1.265,1.265,0,1,0,2.405.783,11.361,11.361,0,0,1,5.132-6.336A1.264,1.264,0,0,0,158.964,160.029Z" transform="translate(-150.902 -159.396)"/>
    </g>
  </g>
  <g id="Grupo_76" data-name="Grupo 76" transform="translate(18.462 31.066)">
    <g id="Grupo_75" data-name="Grupo 75">
      <path id="Trazado_155" data-name="Trazado 155" d="M147.265,245.674A1.265,1.265,0,0,0,146,246.939v.041a1.265,1.265,0,0,0,2.529,0v-.041A1.265,1.265,0,0,0,147.265,245.674Z" transform="translate(-146 -245.674)"/>
    </g>
  </g>
  <g id="Grupo_78" data-name="Grupo 78" transform="translate(37.43 35.019)">
    <g id="Grupo_77" data-name="Grupo 77">
      <path id="Trazado_156" data-name="Trazado 156" d="M303.357,276.991a1.264,1.264,0,0,0-1.593.812,11.36,11.36,0,0,1-5.132,6.335,1.265,1.265,0,1,0,1.265,2.19,13.883,13.883,0,0,0,6.272-7.744A1.264,1.264,0,0,0,303.357,276.991Z" transform="translate(-295.999 -276.928)"/>
    </g>
  </g>
  <g id="Grupo_80" data-name="Grupo 80" transform="translate(43.753 31.107)">
    <g id="Grupo_79" data-name="Grupo 79">
      <path id="Trazado_157" data-name="Trazado 157" d="M347.267,246A1.264,1.264,0,0,0,346,247.265v.041a1.265,1.265,0,1,0,2.529,0v-.041A1.265,1.265,0,0,0,347.267,246Z" transform="translate(-346.002 -246)"/>
    </g>
  </g>
  <g id="Grupo_82" data-name="Grupo 82" transform="translate(30.951 22.997)">
    <g id="Grupo_81" data-name="Grupo 81">
      <path id="Trazado_158" data-name="Trazado 158" d="M249.816,181.864a5.058,5.058,0,1,0,5.058,5.058A5.064,5.064,0,0,0,249.816,181.864Zm0,7.587a2.529,2.529,0,1,1,2.529-2.529A2.532,2.532,0,0,1,249.816,189.451Z" transform="translate(-244.758 -181.864)"/>
    </g>
  </g>
  <g id="Grupo_84" data-name="Grupo 84" transform="translate(23.678 34.159)">
    <g id="Grupo_83" data-name="Grupo 83">
      <path id="Trazado_159" data-name="Trazado 159" d="M191.038,270.131a3.794,3.794,0,1,0,3.794,3.793A3.8,3.8,0,0,0,191.038,270.131Zm0,5.058a1.264,1.264,0,1,1,1.265-1.265A1.266,1.266,0,0,1,191.038,275.189Z" transform="translate(-187.244 -270.131)"/>
    </g>
  </g>
</svg>
